<?xml version="1.0" encoding="UTF-8"?>
<svg version="1.1" viewBox="0 0 1600 760" width="1280" height="1280" xmlns="http://www.w3.org/2000/svg">
<path transform="translate(0)" d="m0 0h1600v760h-1600v-760z" fill="#FBFFFF"/>
<path transform="translate(810 415)" d="m0 0h2.54c38-0.06 75.8 1.61 114 4.31 1.63 0.12 1.63 0.12 3.3 0.24 23.1 1.67 46.1 4.62 69.1 7.7 1.23 0.16 2.45 0.33 3.71 0.49 17.7 2.39 35.3 5.27 52.9 8.57 1.4 0.27 1.4 0.27 2.83 0.53 5.9 1.12 11.8 2.28 17.7 3.47 0.9 0.19 1.79 0.37 2.72 0.56 34.6 7.09 69.2 15.5 103 26.4 0.69 0.23 1.38 0.45 2.1 0.68 10.6 3.47 21.2 7.02 31.8 10.6 1.95 0.67 3.91 1.33 5.86 1.99 12.7 4.28 25.2 8.8 37.6 13.9 4.32 1.76 8.68 3.41 13.1 5.03 19.3 7.17 37.9 16 56.5 24.8 0.87 0.42 1.75 0.83 2.65 1.26 20 9.49 39.8 19.3 59.4 29.7 1.03 0.55 2.06 1.1 3.12 1.66 12.2 6.46 24.3 12.9 36 20.2 2.15 1.31 4.32 2.6 6.48 3.89 17.5 10.4 35.2 20.9 51.4 33.3 1.03 0.69 2.06 1.37 3.12 2.08 2.59 2.18 3.33 3.67 3.68 7.04 0.05 1.62 0.07 3.25 0.07 4.87 0.02 0.88 0.04 1.76 0.06 2.67 0.05 2.78 0.06 5.56 0.07 8.34l0.06 5.19c0.06 5.34 0.05 10.7 0.04 16-0.01 1.94-0.01 3.88-0.01 5.83 0 5.04-0.01 10.1-0.02 15.1-0.01 5.18-0.02 10.4-0.02 15.5-0.01 10.1-0.03 20.2-0.05 30.3-3.31-0.61-5.73-1.2-8.54-3.08-0.98-0.65-0.98-0.65-1.98-1.31-0.7-0.47-1.39-0.94-2.11-1.42-1.51-1-3.03-2-4.54-3-0.79-0.52-1.58-1.04-2.39-1.58-9.76-6.42-19.6-12.8-29.9-18.2-2.87-1.54-5.67-3.19-8.47-4.86-4.84-2.84-9.77-5.4-14.8-7.87-2.86-1.43-5.67-2.95-8.47-4.49-32.4-17.7-67.4-31.4-102-43.8-3.7-1.34-7.38-2.71-11.1-4.09-80.3-30-164-50.7-249-65.3-0.84-0.14-1.67-0.29-2.54-0.44-47.3-8.15-94.6-13.9-142-17.6-0.88-0.07-1.76-0.13-2.67-0.2-42.5-3.24-85.3-3.18-128-2.82-2.24 0.02-4.48 0.03-6.72 0.04-82.4 0.6-166 12.5-247 29.9-4.05 0.87-8.12 1.61-12.2 2.34-10.2 1.87-20.3 4.36-30.4 6.81-3.27 0.79-6.54 1.58-9.81 2.36-49.6 12-98.7 26.3-147 43.2-3.16 1.11-6.32 2.19-9.49 3.26-22.4 7.56-44.2 16.6-65.9 25.9-0.71 0.31-1.42 0.61-2.15 0.92-13.1 5.58-25.9 11.8-38.4 18.6-2.29 1.24-4.58 2.47-6.87 3.69-1.61 0.86-1.61 0.86-3.24 1.73-2.76 1.27-2.76 1.27-5.76 1.27v2c-0.91 0.45-1.81 0.9-2.75 1.36l-3.69 1.83c-0.59 0.29-1.18 0.58-1.79 0.88-8.42 4.19-16.5 8.91-24.6 13.7-0.88 0.53-1.76 1.05-2.66 1.6-5.74 3.46-11.4 7.07-16.9 10.8-2.7 1.81-5.42 3.56-8.19 5.26-0.78 0.49-1.57 0.97-2.37 1.47-2.06 1.03-2.06 1.03-5.06 1.03-2.27-24.6-2.16-49.4-1.92-74.1 0.03-2.78 0.05-5.57 0.06-8.36 0.01-3.96 0.06-7.91 0.12-11.9-0.01-1.2-0.01-2.4-0.01-3.64 0.17-8.21 0.17-8.21 3-12.1 0.9-0.63 1.81-1.27 2.75-1.92 0.77-0.57 1.54-1.13 2.33-1.72 0.79-0.51 1.59-1.03 2.41-1.55 0.91-0.59 1.82-1.18 2.76-1.79 0.97-0.62 1.94-1.24 2.93-1.87 1.02-0.66 2.04-1.32 3.09-1.99 2.12-1.37 4.24-2.73 6.36-4.08 2.9-1.86 5.79-3.73 8.68-5.6 23.9-15.4 48.8-29.4 73.8-43 2.42-1.33 4.84-2.67 7.25-4.03 11.7-6.58 23.6-12.5 35.8-18.2 2.21-1.04 4.41-2.08 6.61-3.13 8.02-3.8 16.1-7.32 24.3-10.8 7.85-3.35 15.6-6.89 23.3-10.5 6.37-2.98 12.9-5.5 19.5-7.93 7.18-2.65 14.3-5.44 21.5-8.2 9.29-3.59 18.6-7.07 28.1-10.2 3.64-1.19 7.25-2.42 10.8-3.78 89.6-33.9 189-50.6 305-58.8 1.93-0.12 1.93-0.12 3.9-0.25 31.5-2.06 62.9-2.83 94.4-2.87z" fill="#E4E7E6"/>
<path transform="translate(808 415)" d="m0 0c4.34 0.01 8.68 0 13-0 17.7-0.02 35.4 0.03 53.1 1.13v3c-9.9 0.5-9.9 0.5-20 1 2.27 0.43 4.53 0.87 6.87 1.31 6.18 1.22 12.1 2.76 18.1 4.69 1.87 0.57 3.75 1.13 5.62 1.69 0.84 0.25 1.68 0.5 2.54 0.76 0.61 0.18 1.21 0.36 1.84 0.55v2c0.53 0.1 1.07 0.21 1.62 0.31 3.14 0.91 5.62 1.91 8.38 3.69 0.87 3.19 0.87 3.19 1 6 2.97 0.99 5.94 1.98 9 3v2c0.72 0.04 1.45 0.08 2.19 0.11 5.71 0.39 9.75 1.07 14.8 3.89 3.23 0.71 3.23 0.71 6 1v2c0.56-0.18 1.13-0.37 1.72-0.56 2.62-0.51 4.19-0.17 6.77 0.47 6.86 1.5 13.7 1.48 20.7 1.57 5.76 0.15 10.5 0.82 15.9 2.85 2.72 0.93 5.29 1.04 8.15 1.11 6.18 0.34 11.6 1.76 17.5 3.58 3.81 1.13 7.61 1.9 11.5 2.59 1.8 0.39 1.8 0.39 2.8 1.39 2.33 0.35 4.66 0.68 7 1 2.45 0.54 4.78 1.25 7.18 2 3.62 0.95 6.96 1.37 10.7 1.72 2.87 0.37 5.46 1.24 8.16 2.28v2c0.57-0.33 1.15-0.66 1.75-1 2.25-1 2.25-1 6.25-1v2c0.52-0.17 1.03-0.34 1.57-0.52 3.19-0.63 6.06-0.4 9.3-0.17 1.2 0.08 2.39 0.16 3.62 0.24 3.4 0.44 6.3 1.25 9.51 2.45v2c0.55-0.17 1.1-0.35 1.67-0.53 2.69-0.54 4.85-0.35 7.58-0.03 0.89 0.1 1.78 0.2 2.7 0.31 0.68 0.08 1.35 0.16 2.05 0.25v2c1.32-0.05 1.32-0.05 2.67-0.11 1.16-0.02 2.32-0.05 3.51-0.08 1.15-0.03 2.3-0.07 3.49-0.1 3.63 0.32 5.36 1.24 8.33 3.29 2.19 0.7 2.19 0.7 4 1v2h2v2h2l-2 4c-0.99-0.33-1.98-0.66-3-1h-3c-0.93-0.71-0.93-0.71-1.88-1.44-3.24-2.38-6.17-2.56-10.1-2.56-1.49 0.5-1.49 0.5-3 1-3 0-3 0-6-1h-3l-2 2c-0.22 2.41-0.22 2.41 2.62 5 2.9 2.81 5.42 4.03 9.38 5 0.99 0.33 1.98 0.66 3 1v2c0.77 0.21 1.54 0.41 2.33 0.62 1.01 0.27 2.01 0.54 3.04 0.82 1 0.26 2 0.53 3.03 0.81 2.6 0.75 2.6 0.75 4.6 1.75v2c0.62-0.19 1.23-0.37 1.87-0.56 2.13-0.44 2.13-0.44 4.13 0.56v3h5l-2 4c1.98 0.33 3.96 0.66 6 1-0.63 1.94-0.63 1.94-2 4-2.88 0.69-2.88 0.69-6 1-0.66 0.25-1.32 0.5-2 0.75-2 0.25-2 0.25-4.94-1.31-2.96-1.83-2.96-1.83-5.75-0.5-0.76 0.35-1.53 0.7-2.31 1.06l-3-2c-0.64 0.17-1.28 0.33-1.94 0.5-2.06 0.5-2.06 0.5-4.06-0.25-2-1.25-2-1.25-4.07-2.87-1.94-1.67-1.94-1.67-4.93-1.38h-32c-1.14 0.06-2.27 0.12-3.44 0.19-4.75 0.02-9.07-1.18-13.6-2.44-2.97-0.8-2.97-0.8-6.18-1.29-2.72-0.45-4.32-1.24-6.75-2.46-5.34-1.51-10.4-2.36-16-2.63-1.1-0.06-1.1-0.06-2.22-0.13-2.36-0.13-4.71-0.25-7.07-0.36-1.63-0.09-3.27-0.18-4.9-0.26-9.12-0.47-18.2-0.77-27.3-0.65-6.76 0.08-13.5-0.29-20.2-0.75-2.1-0.14-4.21-0.22-6.31-0.22-0.98-0.32-1.96-0.63-2.97-0.96-5.11-1.52-10.3-1.51-15.6-1.66-1.09-0.04-2.18-0.08-3.3-0.12-7.44-0.22-14.9-0.39-22.3-0.45-0.9-0.01-1.8-0.02-2.73-0.04-4.86 0-8.46 0.61-13.1 2.23-3.74 0.65-7.49 1.1-11.2 1.56-1.99 0.25-3.97 0.5-5.96 0.76-0.87 0.1-1.74 0.21-2.64 0.32-2.2 0.26-2.2 0.26-4.15 1.36-2 0.1-4 0.13-6 0.13-1.2 0-2.4 0.01-3.63 0.01-1.26-0.01-2.51-0.01-3.81-0.01-1.25 0-2.51 0-3.8 0.01-1.2 0-2.4-0.01-3.63-0.01h-3.35c-2.78-0.13-2.78-0.13-5.78-1.13-1.67-0.09-3.34-0.13-5-0.13-0.97 0-1.94-0.01-2.94-0.01-1.01 0.01-2.02 0.01-3.06 0.02-1.52-0.01-1.52-0.01-3.07-0.02-0.96 0-1.93 0.01-2.93 0.01h-2.69c-2.47 0.04-2.47 0.04-5.31 1.13-7.63 1.3-15.3 1.15-23 1.13-0.69-0.01-1.38-0.01-2.09-0.01-27.8-0.06-27.8-0.06-31.9-2.12-11.6-1.81-23.6-1.11-35.2-1.06-2.12 0-4.23 0.01-6.34 0.01-5.14 0.01-10.3 0.03-15.4 0.05l-1 2c-3.32 0.03-6.63 0.05-9.94 0.06-0.95 0.01-1.89 0.02-2.87 0.03-1.34 0-1.34 0-2.72 0.01-0.83 0-1.67 0.01-2.52 0.01-1.95-0.11-1.95-0.11-2.95-1.11-9.65-1.25-19.4-1.04-29.1-0.69-1.06 0.04-2.13 0.07-3.24 0.11-5.59 0.24-10.4 0.9-15.7 2.58-2.41 0.13-2.41 0.13-4.5 0-4.19-0.11-7.47 0.82-11.5 2-6.03 0.84-12 1.06-18.1 0.97-2.06-0.03-2.06-0.03-4.55 0.59-3.29 0.61-6.08 0.01-9.37-0.56-1.18-0.16-2.35-0.33-3.57-0.5-2.11-0.31-4.21-0.65-6.31-1.06-4.03-0.57-8.06-0.73-12.1-0.44l-1 1c-2.34 0.33-4.66 0.62-7 0.88-6.16 0.72-12.3 1.61-18.4 2.68-0.73 0.13-1.46 0.26-2.21 0.39-3.82 0.66-3.82 0.66-7.41 2.05-0.99-0.49-0.99-0.49-2-1-0.19 0.64-0.38 1.28-0.58 1.93-1.42 2.07-1.42 2.07-4.5 2.79-1.85 0.17-1.85 0.17-3.74 0.34-4.95 0.47-8.05 1.17-12.2 3.94-0.99 0.33-1.98 0.66-3 1l-2 3c-3 0-3 0-6-1-0.83 0.17-1.65 0.33-2.5 0.5-2.5 0.5-2.5 0.5-5.5-0.5h-3c-3.59-0.57-6.64-1.66-10-3-0.89-0.14-1.78-0.29-2.69-0.44-2.31-0.56-2.31-0.56-4.31-3.56 0.49-0.99 0.49-0.99 1-2-0.63-1.35-1.31-2.68-2-4-0.37-1.32-0.71-2.66-1-4 0.64-0.29 1.28-0.58 1.93-0.87 2.22-0.96 2.22-0.96 3.07-3.13v2c0.96-0.31 0.96-0.31 1.93-0.62 4.28-0.53 7.94 0.53 12.1 1.62-0.25-0.74-0.5-1.48-0.75-2.25-0.25-2.75-0.25-2.75 1.31-4.94 2.72-2.02 5.22-2.81 8.44-3.81l1-2h-2v-2c5.03-1.13 8.96-0.76 14 0h2 3v-2c0.88-0.27 1.77-0.54 2.68-0.81 3.1-1.11 5.54-2.46 8.32-4.19 3-1 3-1 6-1 1.5-0.13 3-0.27 4.5-0.44 0.77-0.08 1.54-0.16 2.34-0.24 2.33-0.28 2.33-0.28 5.16-1.32v-2h2l-1-3c0.83-0.37 0.83-0.37 1.68-0.75 2.47-1.21 2.47-1.21 4.69-3.44 2.63-1.81 2.63-1.81 5.5-1.43 1.03 0.2 2.06 0.41 3.13 0.62 5.12-0.97 7.44-2.33 11-6 2.5-0.62 2.5-0.62 5-1 0.93-0.56 0.93-0.56 1.87-1.12 3.19-1.32 5.82-0.52 9.13 0.12 0.49-0.99 0.49-0.99 1-2v2c0.7-0.29 1.4-0.58 2.12-0.87 0.95-0.38 1.9-0.75 2.88-1.13 0.93-0.37 1.85-0.74 2.81-1.12 3.14-0.87 5.81-0.98 9.04-0.88 2.31 0 4.49-0.26 6.77-0.56 3.66-0.46 6.76-0.28 10.4 0.56v2h2v-2c1.01-0.06 1.01-0.06 2.04-0.11 1.34-0.1 1.34-0.1 2.71-0.2 0.88-0.06 1.76-0.12 2.67-0.18 2.91-0.58 4.27-1.7 6.58-3.51 2.43 0.38 2.43 0.38 5 1 2.5-0.41 4.93-0.98 7.39-1.57 4.87-1.12 8.62-1.45 13.5-0.59 5.08 0.4 10.3-1.24 15.1-2.84 1.35-0.18 2.71-0.33 4.07-0.45 0.81-0.07 1.63-0.15 2.47-0.22 0.87-0.08 1.75-0.15 2.66-0.23 1.86-0.17 3.73-0.34 5.6-0.51 2.94-0.27 5.88-0.53 8.81-0.78 2.84-0.26 5.68-0.51 8.52-0.77 0.87-0.08 1.74-0.15 2.63-0.23 10.3-0.95 18-2.87 25.2-10.8 1.65-2.55 3.04-5.08 4.37-7.81 0.54-0.72 1.07-1.45 1.63-2.19 2.68-0.31 2.68-0.31 5 0v-2c1.33-1.33 2.66-2.67 4-4 1.61 0.71 1.61 0.71 3.25 1.44 5.43 2.29 8.78 2.84 14.8 1.56 2.17-1.44 2.17-1.44 4-3 2.06-0.62 2.06-0.62 4-1 1.48-0.49 1.48-0.49 3-1 2.55-0.1 5.07-0.14 7.62-0.12 0.7-0.01 1.39-0.01 2.1-0.02 5.15 0.01 5.15 0.01 6.28 1.14 2.04 0.1 4.08 0.13 6.12 0.13h3.39c3.56-0.13 6.96-0.59 10.5-1.13 2.95-0.36 5.91-0.68 8.87-1 1.13-0.12 1.13-0.12 2.28-0.25 1.51-0.17 3.02-0.33 4.53-0.5 3.77-0.41 7.55-0.83 11.3-1.25-3.91-1.28-7.83-1.13-11.9-1.11h-2.4c-2.61 0-5.21 0-7.82 0.01-1.81 0-3.62 0.01-5.43 0.01-4.76 0-9.52 0.01-14.3 0.02-4.86 0.01-9.72 0.02-14.6 0.02-9.54 0.01-19.1 0.03-28.6 0.05l-1-3c22-0.89 43.9-1.16 65.9-1.13z" fill="#E7E9E9"/>
<path transform="translate(511,117)" d="m0 0c1.05 0.36 2.1 0.72 3.18 1.1 12.6 4.81 24.2 12.5 33.8 21.9v2c0.55 0.2 1.1 0.41 1.67 0.62 12.9 7.66 21 28 24.6 41.8 5.28 25.8 3.41 52-10.9 74.7-1.12 1.65-2.25 3.3-3.38 4.94-0.77 1.23-1.54 2.46-2.31 3.69-0.56 0.76-1.12 1.52-1.69 2.31h-2c-0.38 0.88-0.38 0.88-0.76 1.79-1.39 2.49-2.86 3.83-5.05 5.65-2.33 1.96-4.47 3.85-6.57 6.06-17 16.2-40 23.1-63.1 22.9-23-0.67-44-11-61.5-25.4-1.03-0.8-2.06-1.61-3.12-2.44-17-15.1-28.7-38.6-30-61.2-1.15-28.2 6.54-51.3 24.9-72.8 3.84-4.13 7.96-7.85 12.3-11.5 0.66-0.55 1.31-1.11 1.99-1.68 5.51-4.4 11.6-7.37 18-10.3 0.95-0.46 1.9-0.91 2.88-1.38 20.2-9.19 46.2-9.96 67.1-2.62z" fill="#E4E7E6"/>
<path transform="translate(1091 113)" d="m0 0h2.02c28.3 0.09 51.4 12.8 71.2 32.6 5.37 5.64 9.38 12 13.3 18.8 0.43 0.72 0.86 1.45 1.3 2.2 11.6 21.4 12.2 48.9 5.7 71.8-8.24 24.6-26.3 45.6-49 58-22.6 10.9-47.1 13.9-71.1 5.82-13.2-4.78-24.2-10.7-34.9-19.8-0.78-0.64-0.78-0.64-1.58-1.29-2.82-2.31-5.43-4.62-7.8-7.4-0.75-0.87-0.75-0.87-1.52-1.76-1.1-1.55-1.1-1.55-1.1-3.55h-2c-17.7-22.2-22.8-48.6-19.7-76.5 2.58-16.5 11.9-30.4 21.7-43.5 0.66-1 1.32-1.98 2-3h2v-2h2l2-4h2v-2h2v-2c2.04-1.7 2.04-1.7 4.75-3.57 0.88-0.62 1.76-1.24 2.67-1.88 2.29-1.38 3.97-2.11 6.58-2.55v-2c15.9-7.67 29.6-12.4 47.6-12.4z" fill="#E4E7E6"/>
<path transform="translate(548,10)" d="m0 0c3.59 3.45 6.65 6.99 9.62 11 0.76 1.01 1.52 2.02 2.29 3.06 5.09 7.16 5.09 7.16 5.09 9.94h2c1.54 2.08 1.54 2.08 3.19 4.81 0.55 0.9 1.1 1.79 1.67 2.71 1.14 2.48 1.14 2.48 0.14 5.48h-2v2c-0.76 0.41-1.52 0.82-2.3 1.24-0.99 0.54-1.99 1.08-3.01 1.64-0.99 0.53-1.97 1.06-2.99 1.61-2.8 1.52-2.8 1.52-5.7 3.51h-3v2c-2.77 1.34-5.54 2.67-8.31 4-0.79 0.38-1.57 0.76-2.38 1.16-1.14 0.54-1.14 0.54-2.3 1.09-0.69 0.34-1.39 0.67-2.11 1.02-1.9 0.73-1.9 0.73-4.9 0.73v2c-0.75 0.24-1.5 0.48-2.27 0.73-4.89 1.61-9.73 3.22-14.5 5.21-35.1 14.2-74.4 21.2-112 25.2-0.8 0.09-1.59 0.18-2.41 0.26-15.6 1.66-31.1 2.48-46.8 2.62-0.8 0.01-1.59 0.02-2.41 0.02-55.2 0.5-55.2 0.5-78.5-2.42-4.84-0.6-9.69-1.03-14.5-1.47-29.2-2.66-29.2-2.66-37.6-5.13-1.51-3.02-0.96-6.03-0.75-9.31 0.05-0.74 0.09-1.48 0.14-2.24 0.43-6.27 1.18-12.5 2.05-18.7 0.12-0.89 0.24-1.78 0.37-2.7 0.63-4.28 1.31-8.11 3.19-12 4.89-0.16 9.36-0.02 14.2 0.88 7.63 1.32 15.3 2.13 23 2.92 2.45 0.26 4.9 0.52 7.35 0.79 20.8 2.21 41.4 2.65 62.2 2.66h2.07c22.8 0.02 45.5-0.66 68.2-3.25 1.04-0.11 2.07-0.22 3.14-0.34 13.2-1.47 26.1-4.3 39.1-7.18 6.77-1.49 13.6-2.85 20.4-4.1 4.36-0.83 8.33-2.02 12.5-3.66 3.04-1.13 6.16-1.88 9.31-2.66 5.2-1.34 10.2-2.91 15.1-5.01 2.78-1.17 5.6-2.2 8.43-3.24 12.4-4.73 24.3-10.8 36.1-16.8z" fill="#E4E7E6"/>
<path transform="translate(1008,12)" d="m0 0c2.32 1.19 4.6 2.41 6.88 3.69 7.83 4.28 15.9 7.86 24.1 11.3 0.88 0.38 1.76 0.76 2.67 1.15 5.1 2.14 10.3 3.87 15.6 5.54 0.67 0.21 1.35 0.43 2.04 0.65 3.88 1.2 7.69 2.09 11.7 2.66v2c1.29 0.13 2.58 0.25 3.9 0.38 4.96 0.55 9.79 1.49 14.7 2.56 1.2 0.25 1.2 0.25 2.42 0.51 3.69 0.79 7.35 1.62 11 2.58 4.59 1.17 9.23 1.85 13.9 2.53 1.68 0.25 3.37 0.5 5.05 0.76 0.73 0.1 1.47 0.21 2.23 0.32 1.84 0.36 1.84 0.36 3.84 1.36 2.49 0.35 4.97 0.66 7.46 0.94 0.75 0.08 1.5 0.17 2.27 0.26 1.59 0.17 3.18 0.35 4.77 0.53 2.4 0.27 4.79 0.54 7.19 0.81 12.7 1.44 25.3 2.61 38.1 3.02 1.3 0.04 2.6 0.09 3.94 0.13 41 1.24 81.5-1.11 122-5.69 1.77-0.2 3.54-0.39 5.31-0.59 1.22-0.14 2.43-0.27 3.69-0.41 2.31 3.47 2.54 5.64 3.07 9.76 0.09 0.66 0.17 1.32 0.26 2.01 0.18 1.4 0.36 2.8 0.53 4.21 0.26 2.12 0.54 4.24 0.82 6.36 2.38 18.6 2.38 18.6 0.32 22.7-2.49 0.61-4.91 1.09-7.44 1.5-0.76 0.13-1.53 0.26-2.31 0.39-13.3 2.16-26.8 3.29-40.2 4.41-0.91 0.08-1.83 0.16-2.77 0.24-1.21 0.09-1.21 0.09-2.43 0.19-1.6 0.15-3.2 0.31-4.8 0.51-5.18 0.63-10.3 0.91-15.5 0.92-0.79 0.01-1.58 0.01-2.4 0.02-2.59 0.01-5.19 0.02-7.78 0.02-0.9 0.01-1.81 0.01-2.73 0.01-4.8 0.02-9.59 0.03-14.4 0.03-3.9 0-7.79 0.02-11.7 0.04-23.4 0.14-46.4-0.35-69.6-3.28-1.09-0.13-2.19-0.27-3.31-0.41-9.97-1.23-19.8-2.69-29.6-4.78-4.15-0.86-8.33-1.55-12.5-2.24-8.82-1.47-17.4-3.13-26-5.58-3.04-0.86-6.09-1.62-9.17-2.34-7.21-1.71-14.2-3.82-21.3-6.15-1.29-0.43-1.29-0.43-2.62-0.86-4.94-1.67-9.68-3.58-14.4-5.74-3.4-1.52-6.91-2.67-10.4-3.87-2.58-1.03-2.58-1.03-5.04-2.51-2.72-1.63-5.37-2.66-8.35-3.71-0.98-0.34-1.95-0.69-2.96-1.04-1.1-0.38-1.1-0.38-2.23-0.77v-2c-0.71-0.09-1.41-0.19-2.14-0.29-3.38-0.84-5.74-2.26-8.67-4.15-0.98-0.61-1.95-1.23-2.96-1.87-0.74-0.56-1.47-1.11-2.23-1.69v-2h-2c0.49-9.29 7.71-17.1 13-24.3 2.36-3.25 4.52-6.6 6.64-10 3.11-3.96 6.28-2.29 10.3-0.68z" fill="#E4E7E6"/>
<path transform="translate(1086,159)" d="m0 0c0.72 0.54 1.44 1.07 2.19 1.62 2.75 1.74 2.75 1.74 5.62 0.57 0.72-0.39 1.45-0.79 2.19-1.19v2c1.05 0.1 2.1 0.21 3.19 0.31 3.81 0.69 3.81 0.69 6.5 2.38 1.14 0.65 1.14 0.65 2.31 1.31 2.3-0.69 2.3-0.69 4-2l5 4c-0.88 4.75-0.88 4.75-2 7 1.78 1.07 1.78 1.07 3 1 0.49-1.49 0.49-1.49 1-3 0.78 0.35 1.57 0.7 2.38 1.06 0.86 0.31 1.73 0.62 2.62 0.94l2-1 3 2c0.49-0.5 0.49-0.5 1-1 1.33-0.36 2.66-0.7 4-1 0.99 1.49 0.99 1.49 2 3 1.14 1.37 1.14 1.37 4.19 1.12 4.41 1.02 6 2.16 8.73 5.65 1.71 3.53 1.4 6.74 1.14 10.6-0.06 2.58 0.28 4.14 1.19 6.53 0.25 1.03 0.49 2.06 0.75 3.12-1.81 2.5-1.81 2.5-4 5-0.8 3.69-0.8 3.69-1 7l-5 2 2 3c0 3 0 3-2 6-0.19 1.24-0.19 1.24-0.38 2.5-0.62 2.5-0.62 2.5-2.43 4.38-2.68 1.37-3.41 0.99-6.19 0.12-2.19 0.38-2.19 0.38-4 1-2.25-2.43-2.97-3.72-3.31-7.06 0.31-2.94 0.31-2.94 2.31-5.94v-3c0.35-0.64 0.7-1.28 1.06-1.94 1.13-2.49 0.84-3.54-0.06-6.06-7.09 0-11.2 1.37-16.5 6-2.12 1.86-4.13 3.42-6.5 5v3c-0.94 3.76-1.62 4.77-5 6.81-3 1.19-3 1.19-5 1.19v2c-4.3 4.09-8.06 7.01-14.3 7-4.5-0.35-6.61-0.66-9.73-4-1.98-0.72-3.98-1.38-6-2-3.76-1.46-3.76-1.46-4.88-3.94-1.64-3.02-4.04-3.72-7.12-5.06v-2c-1.98-0.66-3.96-1.32-6-2v-2h-2c-0.72-1.95-1.43-3.91-2.15-5.86-0.79-2.15-0.79-2.15-1.97-4-1.24-3.03-0.91-5.46-0.63-8.7 0.09-1.14 0.18-2.27 0.27-3.44 0.48-3 0.48-3 2.48-6v-3c0.63-2.01 1.3-4.01 2-6l1-3 3-3 1-3h2l1-4 4-1v2h2l-2-4c0.99-0.33 1.98-0.66 3-1 0.25-0.64 0.49-1.28 0.75-1.94 1.25-2.06 1.25-2.06 4.56-3.25 1.22-0.27 2.44-0.53 3.69-0.81 1.18-0.34 1.18-0.34 2.38-0.69 3.31-0.39 6.33 0 9.63 0.44 1.99 0.29 1.99 0.29 3.99 0.25v-2z" fill="#E7E9E9"/>
<path transform="translate(478,160)" d="m0 0c2.35 0.59 4.69 1.27 7 2 2.33 0.37 4.66 0.71 7 1v2c0.62-0.19 1.24-0.37 1.88-0.56 2.12-0.44 2.12-0.44 4.12 0.56v2h2l-1 2c-0.99 0.33-1.98 0.66-3 1 2.65 1.46 3.89 2 7 2 2 2 2 2 2.31 3.88 1.01 3.11 3.1 4.23 5.69 6.12 2.63 2.63 3 4.3 3 8 0.99 1.49 0.99 1.49 2 3v3c1.94 2.67 1.94 2.67 4 5-0.5 0.6-0.99 1.2-1.5 1.81-1.78 2.16-1.78 2.16-1.5 5.19-4.84 4.95-4.84 4.95-9.12 5.12-0.95-0.04-1.9-0.08-2.88-0.12-2.1 1.34-2.1 1.34-4 3-1.65 0.71-3.31 1.39-5 2v2l-2 2c-0.13 1.21-0.13 1.21-0.25 2.44-0.75 2.56-0.75 2.56-3.4 4.18-1.09 0.46-2.17 0.91-3.29 1.38-4.59 1.74-4.59 1.74-7.23 5.58-0.28 0.8-0.55 1.6-0.83 2.42-3.31 1.75-3.31 1.75-7 3-0.8 0.31-1.61 0.62-2.44 0.94-3.44 0.08-5.45-1.31-8.42-2.95-3.35-1.55-6.48-1.73-10.1-1.99v-2c-0.96-0.37-0.96-0.37-1.94-0.75-2.06-1.25-2.06-1.25-2.81-3.37-0.08-0.62-0.17-1.24-0.25-1.88-0.95-0.14-1.9-0.29-2.88-0.44-3.12-0.56-3.12-0.56-5.12-1.56v-3c-2.97 0.5-2.97 0.5-6 1 0.21-0.54 0.41-1.07 0.62-1.62 0.52-3.26-0.52-5.27-1.62-8.38-2.37-8.13-1.89-15.6-1-24h2l1-4h2l-1-3c0.8-0.27 1.61-0.54 2.44-0.81 0.84-0.39 1.69-0.79 2.56-1.19l1-3 1 1 3-2h2l2-4h5c0.12-0.78 0.25-1.57 0.38-2.38 0.71-2.99 1.65-3.97 4.18-5.66 5.02-2.74 9.32-3.48 15-3.69 2.68-0.11 2.68-0.11 5.42-2.27z" fill="#E7E9E9"/>
<path transform="translate(1215,520)" d="m0 0 2 2c3.1-0.32 3.1-0.32 6-1v2l4 1v2c0.68-0.21 1.36-0.41 2.06-0.62 3.74-0.48 6.37 0.52 9.94 1.62h4c2.04 0.59 2.04 0.59 4.06 1.38 0.67 0.25 1.35 0.51 2.04 0.77 1.9 0.85 1.9 0.85 4.9 2.85l2-3c2.47 0.5 2.47 0.5 5 1 0.04 0.58 0.08 1.15 0.12 1.75 1.31 3.37 3.89 4.38 6.88 6.25 0.49 0.99 0.49 0.99 1 2 2.32 1.07 4.62 2.06 7 3 0.89 0.37 1.77 0.74 2.69 1.12 2.09 0.8 4.13 1.39 6.31 1.88 0.49 1.98 0.49 1.98 1 4 0.99-0.06 1.98-0.12 3-0.19 4.53 0 7.91 1.29 12 3.19l1 3c-1.48 0.5-1.48 0.5-3 1l1 2c0.72-0.19 1.44-0.37 2.19-0.56 3.06-0.48 4.82-0.2 7.81 0.56 1 0.15 1 0.15 2.02 0.3 1.07 0.19 1.07 0.19 2.17 0.39 0.67 0.1 1.35 0.21 2.04 0.32 0.58 0.33 1.17 0.65 1.77 0.99 0.26 0.99 0.53 1.97 0.8 2.99 0.4 0.99 0.79 1.99 1.2 3.01 3.24 1.16 3.24 1.16 7 1.5 3.81 0.47 3.81 0.47 7 1.5 1.44 3.09 1.44 3.09 2 6 0.78-0.02 1.57-0.04 2.38-0.06 2.62 0.06 2.62 0.06 4.62 1.06 2.33 0.36 4.66 0.7 7 1 0.25 0.8 0.49 1.61 0.75 2.44 0.95 2.7 0.95 2.7 3.13 3.25 0.7 0.1 1.4 0.2 2.12 0.31 1.35 0.64 2.69 1.3 4 2l-2 2 2 1v2c4.62 0.66 9.24 1.32 14 2l1 5c2.48 1.37 2.48 1.37 5 2-1 1.56-1 1.56-3 3-4.13-0.26-8.02-0.84-12-2v-3l-2-1v-1c-1.55-0.07-1.55-0.07-3.14-0.15-1.37-0.07-2.74-0.15-4.11-0.23-0.68-0.03-1.36-0.06-2.07-0.09-3.67-0.21-6.54-0.54-9.68-2.53v-2h-2v-3c-1.24 0.09-1.24 0.09-2.5 0.19-4.38-0.24-7.45-1.52-11.5-3.19v-4l-5-2v-2h-6c-0.49 0.99-0.49 0.99-1 2-2.88-0.25-2.88-0.25-6-1-1.87-2.55-2-3.81-2-7-1.02 0.06-2.03 0.12-3.08 0.18-9.42 0.36-16.4-0.66-24.9-5.18v-3c-2.97-0.33-5.94-0.66-9-1-0.49-1.98-0.49-1.98-1-4-2.97 0.5-2.97 0.5-6 1l-1 3-5-1v-2l-5 2c-0.59-0.68-0.59-0.68-1.19-1.38-2.12-1.9-4.14-2.68-6.81-3.62v-2h-2v-2c-1.28 0.49-1.28 0.49-2.58 0.98-3.57 1.06-6.46 1.29-10.2 1.27-1.13 0.01-2.26 0.01-3.42 0.02-2.83-0.27-2.83-0.27-4.83-2.27-0.2-2.82-0.2-2.82-0.12-6.12 0.01-1.1 0.03-2.2 0.05-3.33 0.02-0.84 0.05-1.68 0.07-2.55l-7-2c-1.38-4.48-1.48-8.55 0-13 0.04-1.67 0.05-3.33 0-5z" fill="#E7E9E9"/>
<path transform="translate(522,175)" d="m0 0h2l-1 3c2.97 0.5 2.97 0.5 6 1v2l4 1c0.11 0.64 0.22 1.28 0.33 1.93 0.24 1.24 0.24 1.24 0.48 2.51 0.15 0.82 0.3 1.64 0.46 2.49 0.24 0.69 0.48 1.37 0.73 2.07 0.99 0.33 1.98 0.66 3 1v3h2l-1 4h-2c0.75 3.28 0.75 3.28 4 5 1.31 1.81 1.31 1.81 2 4-0.81 2.5-0.81 2.5-2 5-0.55 2.03-1.01 4.06-1.44 6.12-0.56 1.88-0.56 1.88-2.56 3.88h-2c-2.51 1.26-2.87 2.5-4 5h-2l1 3c-0.99 0.5-0.99 0.5-2 1v-2c-1.49 0.5-1.49 0.5-3 1-5.76-6.35-5.76-6.35-6-11 0.32-1.67 0.65-3.34 1-5-0.5-1.49-0.5-1.49-1-3l1-3h2c-0.5-1.49-0.5-1.49-1-3 0.94-2.69 0.94-2.69 2-5l-2-1c-1.04-1.64-2.05-3.31-3-5l1-1c-0.31-0.56-0.62-1.11-0.94-1.69-1.76-3.84-2.27-6.32-1.37-10.5 1.31-2.81 1.31-2.81 3.43-4.19 0.93-0.3 0.93-0.3 1.88-0.62v-2z" fill="#E7E9E9"/>
<path transform="translate(1442,633)" d="m0 0c5.92 0.35 8.07 1.66 12 6 0.93 0.45 1.86 0.91 2.81 1.38 0.72 0.53 1.45 1.07 2.19 1.62 0.31 3.69 0.31 3.69 0 7l-5 1-1 5c-3.38 1.13-4.77 0.82-8.19 0.06-0.9-0.19-1.8-0.39-2.73-0.59-0.69-0.15-1.37-0.31-2.08-0.47-2.12-7.62-2.12-7.62-1-11h-2v-2h-2v-3c0.99-0.33 1.98-0.66 3-1l3 2 1-6z" fill="#E7E9E9"/>
<path transform="translate(1206,558)" d="m0 0c1.67 2.96 2.33 5.37 2.62 8.75 0.08 0.8 0.15 1.6 0.23 2.42 0.08 0.91 0.08 0.91 0.15 1.83-2.23-0.43-4.46-0.87-6.69-1.31-1.24-0.25-2.48-0.49-3.76-0.74-3.38-0.91-5.63-2.08-8.55-3.95-3.19-0.71-3.19-0.71-6-1l-1-4c7.32-2.44 15.4-2.15 23-2z" fill="#E7E9E9"/>
<path transform="translate(1449,690)" d="m0 0h2v2c1.2 0.08 2.39 0.16 3.62 0.25 4.31 0.55 7.07 1.85 10.4 4.75 1.06 2.5 1.06 2.5 1 5-1.43 2.38-3.04 4.04-5 6l-11-6v-3l-2-2h2v-4l-2-1 1-2z" fill="#E7E9E9"/>
<path transform="translate(1174,507)" d="m0 0c2 1 2 1 4.44 3.12 0.84 0.62 1.69 1.24 2.56 1.88 0.99-0.33 1.98-0.66 3-1 1.81 0.38 1.81 0.38 4 1 2 0.35 4 0.68 6 1v2c0.99 0.33 1.98 0.66 3 1-0.99 1.49-0.99 1.49-2 3h-2v2h-3l-1-2c-2.32-0.41-4.66-0.74-7-1v-2l-5 2c-1.5-1.25-1.5-1.25-3-3v-4h-2v-2h2v-2z" fill="#E7E9E9"/>
<path transform="translate(779 416)" d="m0 0c1 0.02 2 0.04 3.03 0.06 1.08 0.03 2.16 0.05 3.27 0.08 1.66 0.04 1.66 0.04 3.35 0.07 3.54 0.08 7.07 0.17 10.6 0.25 2.39 0.05 4.79 0.11 7.18 0.16 5.88 0.13 11.8 0.26 17.6 0.4v1c-8.54 1.22-17 1.13-25.6 1.1h-4.8c-4.19-0.01-8.38-0.02-12.6-0.03-4.29-0.01-8.57-0.01-12.9-0.02-8.38-0.01-16.8-0.03-25.2-0.05l-1-2c0.86 0.01 1.73 0.01 2.61 0.02 3.21 0.01 6.41 0.03 9.61 0.04 1.39 0 2.78 0.01 4.16 0.02 2 0.01 3.99 0.01 5.98 0.02 1.8 0.01 1.8 0.01 3.64 0.02 3.82-0.15 7.04-1.23 10.9-1.14z" fill="#E8EAEA"/>
<path transform="translate(1144 526)" d="m0 0c3.44 1.19 3.44 1.19 4.44 3.19h-2l1 3c-1.29 1.37-2.63 2.71-4 4h-2l-1 2c-5-5.63-5-5.63-5-9 2.85-3.37 4.1-4.21 8.56-3.19z" fill="#E7E9E9"/>
<path transform="translate(510,179)" d="m0 0c0.99 0.33 1.98 0.66 3 1h3c0.99 0.33 1.98 0.66 3 1-0.37 0.68-0.74 1.36-1.12 2.06-1.17 3.91-0.19 6.13 1.12 9.94 0.16 0.74 0.33 1.49 0.5 2.25 0.5 2.08 0.5 2.08 2.5 4.75h-3c-5-5.23-5-5.23-5-9l-2-3v-3c-0.83-2.17-0.83-2.17-3-3l1-3z" fill="#E5E8E7"/>
<path transform="translate(1405,611)" d="m0 0c0.62 0.78 1.24 1.57 1.88 2.38 2.01 2.48 3.21 3.48 6.12 4.62l-1 2c-5.26 0.32-8.45-0.33-13-3v-4c3.75-2 3.75-2 6-2z" fill="#E8EAEA"/>
<path transform="translate(1384,600)" d="m0 0 7 2c-0.99 0.5-0.99 0.5-2 1l2 1c3 4.5 3 4.5 3 7h-5v-2c-0.99-0.33-1.98-0.66-3-1-0.75-2-0.75-2-1-4l1-1-2-1v-2z" fill="#E8EAEA"/>
<path transform="translate(1212,519)" d="m0 0 2 3c-0.97 0.12-1.94 0.25-2.94 0.38-1.51 0.3-1.51 0.3-3.06 0.62l-1 2v-2l-4 2c-1-1-1-1-1.06-3.56 0.02-0.81 0.04-1.61 0.06-2.44 3.76-1.25 6.15-0.84 10 0z" fill="#E7E9E9"/>
<path transform="translate(1119,117)" d="m0 0c4.13 0.61 7.37 1.94 11 4l1 2c-8.35-1.33-8.35-1.33-11.1-4.12l-0.94-1.88z" fill="#E7E9E9"/>
</svg>
